<svg preserveAspectRatio="none" width="100%" height="100%" overflow="visible" style="display: block;" viewBox="0 0 14 14" fill="none" xmlns="http://www.w3.org/2000/svg">
<g id="Frame 1410120251">
<path id="Vector" d="M7.00108 0.890625C7.63572 0.890633 8.21683 0.995763 8.65928 1.26953C9.13927 1.56653 9.4131 2.03883 9.41319 2.61523C9.41319 2.69236 9.40863 2.76875 9.39951 2.84375L9.59092 2.71777C10.0899 2.42971 10.6359 2.43125 11.1329 2.69824C11.5913 2.94454 11.9738 3.39558 12.2911 3.94531C12.6082 4.49476 12.8069 5.05052 12.7911 5.57031C12.776 6.0639 12.5664 6.48886 12.1798 6.78027L12.003 6.89648C11.9356 6.93549 11.8663 6.96916 11.796 6.99902C11.8667 7.02899 11.9361 7.06428 12.004 7.10352C12.5031 7.39189 12.7749 7.86548 12.7921 8.42969C12.8079 8.94971 12.6084 9.50526 12.2911 10.0547C11.9738 10.6041 11.5921 11.0554 11.1339 11.3018C10.6367 11.5689 10.0903 11.5697 9.59092 11.2812C9.52322 11.2421 9.4587 11.1995 9.39756 11.1533C9.40719 11.2295 9.41221 11.3069 9.41221 11.3848C9.41213 11.9584 9.14895 12.4345 8.66416 12.7344C8.22152 13.0081 7.63853 13.1094 7.0001 13.1094C6.3616 13.1094 5.77863 13.0082 5.33604 12.7344C4.85138 12.4345 4.58807 11.9583 4.58799 11.3848C4.58799 11.3072 4.59213 11.2301 4.60166 11.1543C4.54077 11.2001 4.47668 11.2434 4.40928 11.2822C3.9103 11.5702 3.36426 11.5688 2.86729 11.3018C2.40892 11.0555 2.02742 10.6044 1.71006 10.0547C1.3927 9.50495 1.19317 8.94876 1.20908 8.42871C1.22648 7.86484 1.49831 7.39164 1.99717 7.10352L2.20322 7C2.13287 6.97014 2.06377 6.93552 1.99619 6.89648C1.49701 6.60811 1.2253 6.13454 1.20811 5.57031C1.1923 5.05028 1.39178 4.49476 1.70908 3.94531C2.02643 3.39581 2.40803 2.94457 2.86631 2.69824C3.36343 2.43115 3.90999 2.43018 4.40928 2.71875C4.47675 2.75775 4.54072 2.8007 4.60166 2.84668C4.59232 2.77074 4.58799 2.69334 4.58799 2.61523C4.58807 2.03884 4.86192 1.56653 5.3419 1.26953C5.78434 0.995768 6.36547 0.890637 7.0001 0.890625H7.00108ZM8.62705 8.77832C8.47773 8.91479 8.31095 9.0352 8.12705 9.13281L8.12315 9.13379C8.06444 9.16598 8.02742 9.22892 8.02744 9.29785C8.02801 9.36773 8.06719 9.43111 8.12901 9.46289H8.12803C8.29731 9.54927 8.45679 9.65472 8.60166 9.77441C8.54604 9.44446 8.55541 9.10357 8.62705 8.77832ZM5.37315 8.77832C5.44485 9.10329 5.45398 9.44363 5.39854 9.77344C5.54382 9.65367 5.70272 9.54912 5.87119 9.46289C5.93295 9.43122 5.97219 9.36758 5.97276 9.29785C5.97317 9.22935 5.93526 9.16526 5.87412 9.13281C5.68993 9.03513 5.52267 8.91505 5.37315 8.77832ZM4.64561 6.47949C4.39991 6.70411 4.10942 6.88212 3.79502 6.99902C4.10881 7.11555 4.39884 7.29432 4.64463 7.51855C4.60768 7.35047 4.58799 7.17658 4.58799 7C4.58802 6.82126 4.60859 6.64721 4.64561 6.47949ZM9.35557 6.48145C9.39232 6.64859 9.41316 6.82192 9.41319 7C9.41319 7.17668 9.39253 7.35042 9.35557 7.51855C9.60083 7.29473 9.89065 7.11665 10.2042 7C9.89088 6.88346 9.60104 6.70539 9.35557 6.48145ZM5.39658 4.22363C5.45261 4.55546 5.44379 4.89822 5.37119 5.22559C5.62719 4.99039 5.9324 4.80782 6.27158 4.7002C5.95414 4.59934 5.65449 4.43697 5.39658 4.22363ZM8.60069 4.22559C8.34316 4.43811 8.04491 4.59991 7.72862 4.7002C8.06703 4.80742 8.37134 4.98938 8.62705 5.22363C8.55492 4.89786 8.54501 4.55625 8.60069 4.22559Z" stroke="var(--stroke-0, #524742)" stroke-width="1.21917"/>
</g>
</svg>
