<svg preserveAspectRatio="none" width="100%" height="100%" overflow="visible" style="display: block;" viewBox="0 0 12 12" fill="none" xmlns="http://www.w3.org/2000/svg">
<g id="SVG">
<path id="Vector" d="M8 7V8.1L8.8 8.6" stroke="var(--stroke-0, #524742)" stroke-linecap="round" stroke-linejoin="round"/>
<path id="Vector_2" d="M8 1V3" stroke="var(--stroke-0, #524742)" stroke-linecap="round" stroke-linejoin="round"/>
<path id="Vector_3" d="M10.5 3.75V3C10.5 2.44808 10.0519 2 9.5 2H2.5C1.94808 2 1.5 2.44808 1.5 3V10C1.5 10.5519 1.94808 11 2.5 11H4.25" stroke="var(--stroke-0, #524742)" stroke-linecap="round" stroke-linejoin="round"/>
<path id="Vector_4" d="M1.5 5H4" stroke="var(--stroke-0, #524742)" stroke-linecap="round" stroke-linejoin="round"/>
<path id="Vector_5" d="M4 1V3" stroke="var(--stroke-0, #524742)" stroke-linecap="round" stroke-linejoin="round"/>
<path id="Vector_6" d="M5 8C5 9.65575 6.34425 11 8 11C9.65575 11 11 9.65575 11 8C11 6.34425 9.65575 5 8 5C6.34425 5 5 6.34425 5 8V8" stroke="var(--stroke-0, #524742)" stroke-linecap="round" stroke-linejoin="round"/>
</g>
</svg>
